{
  "accessors": [
    {
      "bufferView": 2,
      "componentType": 5126,
      "count": 21222,
      "max": [
        0.8688812255859375,
        2.7473678588867188,
        1.8110408782958984
      ],
      "min": [
        -0.86888027191162109,
        -3.4844322204589844,
        -4.0707359313964844
      ],
      "type": "VEC3"
    },
    {
      "bufferView": 2,
      "byteOffset": 254664,
      "componentType": 5126,
      "count": 21222,
      "max": [
        0.99996930360794067,
        0.99993860721588135,
        0.99982559680938721
      ],
      "min": [
        -0.99997526407241821,
        -0.9999997615814209,
        -0.9987754225730896
      ],
      "type": "VEC3"
    },
    {
      "bufferView": 1,
      "componentType": 5126,
      "count": 21222,
      "max": [
        0.99117738008499146,
        0.99316591024398804
      ],
      "min": [
        0.0068634748458862305,
        0.0062947273254394531
      ],
      "type": "VEC2"
    },
    {
      "bufferView": 1,
      "byteOffset": 169776,
      "componentType": 5126,
      "count": 21222,
      "max": [
        0.99117738008499146,
        0.99316591024398804
      ],
      "min": [
        0.0068634748458862305,
        0.0062947273254394531
      ],
      "type": "VEC2"
    },
    {
      "bufferView": 1,
      "byteOffset": 339552,
      "componentType": 5126,
      "count": 21222,
      "max": [
        0.99117738008499146,
        0.99316591024398804
      ],
      "min": [
        0.0068634748458862305,
        0.0062947273254394531
      ],
      "type": "VEC2"
    },
    {
      "bufferView": 0,
      "componentType": 5125,
      "count": 109566,
      "max": [
        21221
      ],
      "min": [
        0
      ],
      "type": "SCALAR"
    }
  ],
  "asset": {
    "extras": {
      "author": "fakepad (https://sketchfab.com/fakepad)",
      "license": "CC-BY-4.0 (http://creativecommons.org/licenses/by/4.0/)",
      "source": "https://sketchfab.com/3d-models/parrot-92e36afa506e492eabc12b6fd34c45c9",
      "title": "Parrot"
    },
    "generator": "Sketchfab-10.29.0",
    "version": "2.0"
  },
  "bufferViews": [
    {
      "buffer": 0,
      "byteLength": 438264,
      "byteOffset": 0,
      "name": "floatBufferViews",
      "target": 34963
    },
    {
      "buffer": 0,
      "byteLength": 509328,
      "byteOffset": 438264,
      "byteStride": 8,
      "name": "floatBufferViews",
      "target": 34962
    },
    {
      "buffer": 0,
      "byteLength": 509328,
      "byteOffset": 947592,
      "byteStride": 12,
      "name": "floatBufferViews",
      "target": 34962
    }
  ],
  "buffers": [
    {
      "byteLength": 1456920,
      "uri": "scene.bin"
    }
  ],
  "extensionsRequired": [
    "KHR_materials_pbrSpecularGlossiness"
  ],
  "extensionsUsed": [
    "KHR_materials_pbrSpecularGlossiness"
  ],
  "images": [
    {
      "uri": "textures/material_diffuse.png"
    },
    {
      "uri": "textures/material_specularGlossiness.png"
    }
  ],
  "materials": [
    {
      "doubleSided": true,
      "emissiveFactor": [
        0,
        0,
        0
      ],
      "extensions": {
        "KHR_materials_pbrSpecularGlossiness": {
          "diffuseFactor": [
            1,
            1,
            1,
            1
          ],
          "diffuseTexture": {
            "index": 0,
            "texCoord": 0
          },
          "glossinessFactor": 1,
          "specularFactor": [
            1,
            1,
            1
          ],
          "specularGlossinessTexture": {
            "index": 1,
            "texCoord": 0
          }
        }
      },
      "name": "material"
    }
  ],
  "meshes": [
    {
      "primitives": [
        {
          "attributes": {
            "NORMAL": 1,
            "POSITION": 0,
            "TEXCOORD_0": 2,
            "TEXCOORD_1": 3,
            "TEXCOORD_2": 4
          },
          "indices": 5,
          "material": 0,
          "mode": 4
        }
      ]
    }
  ],
  "nodes": [
    {
      "children": [
        1
      ],
      "name": "RootNode (gltf orientation matrix)",
      "rotation": [
        -0.70710678118654746,
        -0,
        -0,
        0.70710678118654757
      ]
    },
    {
      "children": [
        2
      ],
      "name": "RootNode (model correction matrix)"
    },
    {
      "children": [
        3
      ],
      "name": "root"
    },
    {
      "children": [
        4
      ],
      "matrix": [
        1,
        0,
        0,
        0,
        0,
        2.2204460492503131e-16,
        1,
        0,
        0,
        -1,
        2.2204460492503131e-16,
        0,
        0,
        0,
        0,
        1
      ],
      "name": "GLTF_SceneRootNode"
    },
    {
      "children": [
        5
      ],
      "name": "root_0"
    },
    {
      "children": [
        6
      ],
      "matrix": [
        0.054481564418103971,
        0,
        -0.055137863501328294,
        0,
        0,
        0.077514037489891052,
        0,
        0,
        0.055137874100934479,
        0,
        0.054481574891544364,
        0,
        0.066074676811695099,
        0.018922004848718643,
        0.32403039932250977,
        1
      ],
      "name": "node_id35_1"
    },
    {
      "mesh": 0,
      "name": ""
    }
  ],
  "samplers": [
    {
      "magFilter": 9729,
      "minFilter": 9987,
      "wrapS": 10497,
      "wrapT": 10497
    }
  ],
  "scene": 0,
  "scenes": [
    {
      "name": "OSG_Scene",
      "nodes": [
        0
      ]
    }
  ],
  "textures": [
    {
      "sampler": 0,
      "source": 0
    },
    {
      "sampler": 0,
      "source": 1
    }
  ]
}

